<mxfile host="app.diagrams.net" modified="2023-09-14T22:43:39.501Z" agent="Mozilla/5.0 (Windows NT 10.0; Win64; x64) AppleWebKit/537.36 (KHTML, like Gecko) Chrome/116.0.0.0 Safari/537.36" etag="MVaRulrp28rINLTSEr0r" version="21.6.1" type="device">
  <diagram name="Page-1" id="cycvBKlqxf5aqk-mUkms">
    <mxGraphModel dx="1444" dy="1590" grid="1" gridSize="10" guides="1" tooltips="1" connect="1" arrows="1" fold="1" page="1" pageScale="1" pageWidth="850" pageHeight="1100" math="0" shadow="0">
      <root>
        <mxCell id="0" />
        <mxCell id="1" parent="0" />
        <mxCell id="gUDENChZjkcXLC0sRtr2-7" value="" style="edgeStyle=orthogonalEdgeStyle;rounded=0;orthogonalLoop=1;jettySize=auto;html=1;entryX=0;entryY=0.5;entryDx=0;entryDy=0;" edge="1" parent="1" source="gUDENChZjkcXLC0sRtr2-1" target="gUDENChZjkcXLC0sRtr2-2">
          <mxGeometry relative="1" as="geometry">
            <mxPoint x="-300" y="320" as="targetPoint" />
          </mxGeometry>
        </mxCell>
        <mxCell id="gUDENChZjkcXLC0sRtr2-1" value="Project&lt;br&gt;Requirements" style="ellipse;whiteSpace=wrap;html=1;" vertex="1" parent="1">
          <mxGeometry x="-520" y="280" width="120" height="80" as="geometry" />
        </mxCell>
        <mxCell id="gUDENChZjkcXLC0sRtr2-2" value="Planning" style="ellipse;whiteSpace=wrap;html=1;" vertex="1" parent="1">
          <mxGeometry x="-260" y="280" width="120" height="80" as="geometry" />
        </mxCell>
        <mxCell id="gUDENChZjkcXLC0sRtr2-3" value="Design" style="ellipse;whiteSpace=wrap;html=1;" vertex="1" parent="1">
          <mxGeometry x="-120" y="360" width="120" height="80" as="geometry" />
        </mxCell>
        <mxCell id="gUDENChZjkcXLC0sRtr2-4" value="Feedback" style="ellipse;whiteSpace=wrap;html=1;" vertex="1" parent="1">
          <mxGeometry x="-410" y="360" width="120" height="80" as="geometry" />
        </mxCell>
        <mxCell id="gUDENChZjkcXLC0sRtr2-15" value="" style="edgeStyle=orthogonalEdgeStyle;rounded=0;orthogonalLoop=1;jettySize=auto;html=1;dashed=1;" edge="1" parent="1" source="gUDENChZjkcXLC0sRtr2-5" target="gUDENChZjkcXLC0sRtr2-14">
          <mxGeometry relative="1" as="geometry" />
        </mxCell>
        <mxCell id="gUDENChZjkcXLC0sRtr2-5" value="Testing" style="ellipse;whiteSpace=wrap;html=1;" vertex="1" parent="1">
          <mxGeometry x="-350" y="490" width="120" height="80" as="geometry" />
        </mxCell>
        <mxCell id="gUDENChZjkcXLC0sRtr2-10" value="" style="endArrow=classic;html=1;rounded=0;entryX=0;entryY=1;entryDx=0;entryDy=0;" edge="1" parent="1" source="gUDENChZjkcXLC0sRtr2-4" target="gUDENChZjkcXLC0sRtr2-2">
          <mxGeometry width="50" height="50" relative="1" as="geometry">
            <mxPoint x="-300" y="410" as="sourcePoint" />
            <mxPoint x="-250" y="360" as="targetPoint" />
          </mxGeometry>
        </mxCell>
        <mxCell id="gUDENChZjkcXLC0sRtr2-11" value="" style="endArrow=classic;html=1;rounded=0;entryX=0.5;entryY=1;entryDx=0;entryDy=0;exitX=0;exitY=0;exitDx=0;exitDy=0;" edge="1" parent="1" source="gUDENChZjkcXLC0sRtr2-5" target="gUDENChZjkcXLC0sRtr2-4">
          <mxGeometry width="50" height="50" relative="1" as="geometry">
            <mxPoint x="-250" y="540" as="sourcePoint" />
            <mxPoint x="-192" y="480" as="targetPoint" />
          </mxGeometry>
        </mxCell>
        <mxCell id="gUDENChZjkcXLC0sRtr2-12" value="" style="endArrow=classic;html=1;rounded=0;entryX=1;entryY=0;entryDx=0;entryDy=0;exitX=0.5;exitY=1;exitDx=0;exitDy=0;" edge="1" parent="1" source="gUDENChZjkcXLC0sRtr2-3" target="gUDENChZjkcXLC0sRtr2-17">
          <mxGeometry width="50" height="50" relative="1" as="geometry">
            <mxPoint x="-100" y="471" as="sourcePoint" />
            <mxPoint x="-42" y="409" as="targetPoint" />
          </mxGeometry>
        </mxCell>
        <mxCell id="gUDENChZjkcXLC0sRtr2-13" value="" style="endArrow=classic;html=1;rounded=0;entryX=0;entryY=0;entryDx=0;entryDy=0;" edge="1" parent="1" target="gUDENChZjkcXLC0sRtr2-3">
          <mxGeometry width="50" height="50" relative="1" as="geometry">
            <mxPoint x="-150" y="342" as="sourcePoint" />
            <mxPoint x="-92" y="280" as="targetPoint" />
          </mxGeometry>
        </mxCell>
        <mxCell id="gUDENChZjkcXLC0sRtr2-14" value="Delivery" style="ellipse;whiteSpace=wrap;html=1;" vertex="1" parent="1">
          <mxGeometry x="-520" y="490" width="120" height="80" as="geometry" />
        </mxCell>
        <mxCell id="gUDENChZjkcXLC0sRtr2-17" value="Develop" style="ellipse;whiteSpace=wrap;html=1;" vertex="1" parent="1">
          <mxGeometry x="-180" y="490" width="120" height="80" as="geometry" />
        </mxCell>
        <mxCell id="gUDENChZjkcXLC0sRtr2-20" value="" style="endArrow=classic;html=1;rounded=0;exitX=0;exitY=0.5;exitDx=0;exitDy=0;entryX=1;entryY=0.5;entryDx=0;entryDy=0;" edge="1" parent="1" source="gUDENChZjkcXLC0sRtr2-17" target="gUDENChZjkcXLC0sRtr2-5">
          <mxGeometry width="50" height="50" relative="1" as="geometry">
            <mxPoint x="-200" y="530" as="sourcePoint" />
            <mxPoint x="-210" y="610" as="targetPoint" />
          </mxGeometry>
        </mxCell>
      </root>
    </mxGraphModel>
  </diagram>
</mxfile>
